<svg id="레이어_1" data-name="레이어 1" xmlns="http://www.w3.org/2000/svg" viewBox="0 0 171.03 155.54"><defs><style>.cls-1{fill:#4725f2;}</style></defs><path class="cls-1" d="M28.33,23a30.22,30.22,0,0,1,3.52-5.29,26.34,26.34,0,0,1,4.36-4.16,26.07,26.07,0,0,1,5.16-3,29.86,29.86,0,0,1,6-1.9,18.26,18.26,0,0,1,2.06-.3c.69-.07,1.38-.1,2.08-.12s1.41,0,2.13-.05,1.46,0,2.21-.08l.39-.8.44-.89c.15-.31.31-.63.48-.95l.5-1,.3-.54c.1-.18.21-.36.32-.54l.35-.52a6.12,6.12,0,0,1,.39-.5,7.29,7.29,0,0,1,1.31-1.18A7.07,7.07,0,0,1,61.78.4,6,6,0,0,1,63.36,0,5.49,5.49,0,0,1,64.93.1l.18,0,.19,0,.18,0,.18.07a3.2,3.2,0,0,1,1.24.8,3.39,3.39,0,0,1,.74,1.24,3.86,3.86,0,0,1,.18,1.53,4.74,4.74,0,0,1-.43,1.67c-.19.41-.38.82-.58,1.23L66.21,8,65.6,9.24,65,10.48,72.2,12l7.36,1.58,7.51,1.63,7.71,1.66.53-1.14c.18-.38.35-.76.53-1.13l.51-1.12c.18-.37.35-.74.52-1.11a8.42,8.42,0,0,1,1.42-2.13,7.35,7.35,0,0,1,1.86-1.5A7,7,0,0,1,102.32,8a6.25,6.25,0,0,1,2.32,0,4.82,4.82,0,0,1,2,.83,3.61,3.61,0,0,1,1.16,1.47,4.2,4.2,0,0,1,.3,2,6.86,6.86,0,0,1-.62,2.34c-.16.37-.33.74-.5,1.11l-.51,1.12c-.17.38-.34.76-.52,1.14s-.35.78-.54,1.18l.45.15.4.13.37.13.36.11a20.16,20.16,0,0,1,7.13,3.94,16.77,16.77,0,0,1,4.44,6.08,18,18,0,0,1,1.38,7.7,23.77,23.77,0,0,1-2.06,8.7q-3,6.88-6,13.89l-6.17,14.19Q102.5,81.4,99.31,88.7t-6.48,14.81A29.27,29.27,0,0,1,79,118a25.62,25.62,0,0,1-9.21,2.57,21.33,21.33,0,0,1-9.16-1.26l-6.88-2.61c-2.26-.85-4.5-1.71-6.72-2.56l-6.58-2.53L34,109.12l-6.28-2.45-6.15-2.42-6-2.39L9.64,99.51a14.49,14.49,0,0,1-6-4.37A16.31,16.31,0,0,1,.53,88.56a21.09,21.09,0,0,1-.3-7.84,26.33,26.33,0,0,1,2.66-8.24q3.27-6.42,6.5-12.74t6.38-12.49Q18.93,41.09,22.08,35T28.33,23ZM12,75A15.48,15.48,0,0,0,10.6,78.8a11.18,11.18,0,0,0-.18,3.57,8.42,8.42,0,0,0,1,3.12,7.81,7.81,0,0,0,2.18,2.45c.18.14.38.27.57.39s.41.24.62.34.42.21.64.3.44.18.66.26l7.19,2.65,7.37,2.72,7.55,2.77L46,100.21l4.56,1.68,4.62,1.69,4.7,1.73,4.77,1.74a13.25,13.25,0,0,0,5.12.83,12,12,0,0,0,4.82-1.2,13.59,13.59,0,0,0,4.15-3.09,17.77,17.77,0,0,0,3.13-4.81l3.68-8.27,3.64-8.16,3.59-8.07q1.79-4,3.55-8l.13-.29.13-.31.15-.32.15-.36L78,59.61,60.1,54.49,43.17,49.64,27.09,45l-.49,1-.48,1-.47.93-.47.93C24.09,51,23,53.1,21.92,55.25l-3.3,6.5Q17,65,15.3,68.32L12,75M32.17,35l16,4.3,16.91,4.52L83,48.63,101.9,53.7l.25-.57.26-.58.25-.56.26-.57c.34-.8.7-1.59,1-2.38s.72-1.57,1.07-2.36.7-1.57,1-2.36.67-1.57,1-2.36a9.49,9.49,0,0,0,.67-4,8.78,8.78,0,0,0-3.39-6.53,9.17,9.17,0,0,0-3.56-1.68h-.18c-.19.42-.38.83-.56,1.24s-.38.83-.56,1.25l-.57,1.25c-.19.41-.39.83-.59,1.24a7.85,7.85,0,0,1-1.17,1.8,8,8,0,0,1-1.54,1.37,7.08,7.08,0,0,1-1.8.86,6.09,6.09,0,0,1-1.94.29h-.37l-.35,0-.34-.05-.33-.08A4.62,4.62,0,0,1,88.65,38a4,4,0,0,1-1.15-1.48,4.4,4.4,0,0,1-.39-1.9,5.57,5.57,0,0,1,.49-2.14l.57-1.28.59-1.28.61-1.29c.2-.43.41-.87.61-1.31l-7.69-1.8-7.52-1.75L67.41,22l-7.24-1.69c-.19.4-.39.8-.58,1.19L59,22.68l-.56,1.16L57.89,25a7.52,7.52,0,0,1-1.36,1.91,7.24,7.24,0,0,1-1.78,1.37,6.39,6.39,0,0,1-2,.7,5.28,5.28,0,0,1-2.06-.06,3.89,3.89,0,0,1-1.58-.81,3.47,3.47,0,0,1-.94-1.38,4.32,4.32,0,0,1-.24-1.78,5.86,5.86,0,0,1,.54-2c.18-.4.36-.8.56-1.19s.39-.8.59-1.19.4-.8.61-1.2.4-.81.61-1.22l-.1,0-.1,0-.1,0-.1,0a9.56,9.56,0,0,0-1.05-.17,7.62,7.62,0,0,0-1.07,0,7.93,7.93,0,0,0-1.07.11,10.76,10.76,0,0,0-1.1.23,15.07,15.07,0,0,0-2.76,1A13.17,13.17,0,0,0,41,20.65a12.77,12.77,0,0,0-2.06,2,14.73,14.73,0,0,0-1.67,2.48c-.44.8-.86,1.61-1.28,2.43S35.1,29.17,34.69,30l-1.25,2.5L32.17,35"/><path class="cls-1" d="M171,63c-.3,1.25-.53,2.52-.9,3.75a18,18,0,0,1-4.59,7.6q-34.71,34.73-69.46,69.42a6.45,6.45,0,0,1-2.41,1.48c-9.94,3.36-19.91,6.65-29.86,10A4.48,4.48,0,0,1,58,149.39c3.34-9.95,6.63-19.92,10-29.87A6.6,6.6,0,0,1,69.53,117Q104,82.48,138.56,48a18.93,18.93,0,0,1,11.14-5.63,2.59,2.59,0,0,0,.51-.18h4a3.35,3.35,0,0,0,.61.2,18.81,18.81,0,0,1,15.71,14.28c.19.78.34,1.57.51,2.36Zm-33.31-1.42L78.88,120.42l13.91,13.93,58.83-58.87Zm20.46,7.57c3.24-2.87,4.74-6.34,3.64-10.6a9.41,9.41,0,0,0-7.44-7.23c-4.19-.94-7.58.58-10.29,3.74ZM74.13,128.94l-5.06,15.19,15.19-5.07Z"/></svg>