<svg id="레이어_1" data-name="레이어 1" xmlns="http://www.w3.org/2000/svg" viewBox="0 0 672.88 155.54"><defs><style>.cls-1{fill:#4725f2;}</style></defs><path class="cls-1" d="M28.33,23a30.22,30.22,0,0,1,3.52-5.29,26.34,26.34,0,0,1,4.36-4.16,26.07,26.07,0,0,1,5.16-3,29.86,29.86,0,0,1,6-1.9,18.26,18.26,0,0,1,2.06-.3c.69-.07,1.38-.1,2.08-.12s1.41,0,2.13-.05,1.46,0,2.21-.08l.39-.8.44-.89c.15-.31.31-.63.48-.95l.5-1,.3-.54c.1-.18.21-.36.32-.54l.35-.52a6.12,6.12,0,0,1,.39-.5,7.29,7.29,0,0,1,1.31-1.18A7.07,7.07,0,0,1,61.78.4,6,6,0,0,1,63.36,0,5.49,5.49,0,0,1,64.93.1l.18,0,.19,0,.18,0,.18.07a3.2,3.2,0,0,1,1.24.8,3.39,3.39,0,0,1,.74,1.24,3.86,3.86,0,0,1,.18,1.53,4.74,4.74,0,0,1-.43,1.67c-.19.41-.38.82-.58,1.23L66.21,8,65.6,9.24,65,10.48,72.2,12l7.36,1.58,7.51,1.63,7.71,1.66.53-1.14c.18-.38.35-.76.53-1.13l.51-1.12c.18-.37.35-.74.52-1.11a8.42,8.42,0,0,1,1.42-2.13,7.35,7.35,0,0,1,1.86-1.5A7,7,0,0,1,102.32,8a6.25,6.25,0,0,1,2.32,0,4.82,4.82,0,0,1,2,.83,3.61,3.61,0,0,1,1.16,1.47,4.2,4.2,0,0,1,.3,2,6.86,6.86,0,0,1-.62,2.34c-.16.37-.33.74-.5,1.11l-.51,1.12c-.17.38-.34.76-.52,1.14s-.35.78-.54,1.18l.45.15.4.13.37.13.36.11a20.16,20.16,0,0,1,7.13,3.94,16.77,16.77,0,0,1,4.44,6.08,18,18,0,0,1,1.38,7.7,23.77,23.77,0,0,1-2.06,8.7q-3,6.88-6,13.89l-6.17,14.19Q102.5,81.4,99.31,88.7t-6.48,14.81A29.27,29.27,0,0,1,79,118a25.62,25.62,0,0,1-9.21,2.57,21.33,21.33,0,0,1-9.16-1.26l-6.88-2.61c-2.26-.85-4.5-1.71-6.72-2.56l-6.58-2.53L34,109.12l-6.28-2.45-6.15-2.42-6-2.39L9.64,99.51a14.49,14.49,0,0,1-6-4.37A16.31,16.31,0,0,1,.53,88.56a21.09,21.09,0,0,1-.3-7.84,26.33,26.33,0,0,1,2.66-8.24q3.27-6.42,6.5-12.74t6.38-12.49Q18.93,41.09,22.08,35T28.33,23ZM12,75A15.48,15.48,0,0,0,10.6,78.8a11.18,11.18,0,0,0-.18,3.57,8.42,8.42,0,0,0,1,3.12,7.81,7.81,0,0,0,2.18,2.45c.18.14.38.27.57.39s.41.24.62.34.42.21.64.3.44.18.66.26l7.19,2.65,7.37,2.72,7.55,2.77L46,100.21l4.56,1.68,4.62,1.69,4.7,1.73,4.77,1.74a13.25,13.25,0,0,0,5.12.83,12,12,0,0,0,4.82-1.2,13.59,13.59,0,0,0,4.15-3.09,17.77,17.77,0,0,0,3.13-4.81l3.68-8.27,3.64-8.16,3.59-8.07q1.79-4,3.55-8l.13-.29.13-.31.15-.32.15-.36L78,59.61,60.1,54.49,43.17,49.64,27.09,45l-.49,1-.48,1-.47.93-.47.93C24.09,51,23,53.1,21.92,55.25l-3.3,6.5Q17,65,15.3,68.32L12,75M32.17,35l16,4.3,16.91,4.52L83,48.63,101.9,53.7l.25-.57.26-.58.25-.56.26-.57c.34-.8.7-1.59,1-2.38s.72-1.57,1.07-2.36.7-1.57,1-2.36.67-1.57,1-2.36a9.49,9.49,0,0,0,.67-4,8.78,8.78,0,0,0-3.39-6.53,9.17,9.17,0,0,0-3.56-1.68h-.18c-.19.42-.38.83-.56,1.24s-.38.83-.56,1.25l-.57,1.25c-.19.41-.39.83-.59,1.24a7.85,7.85,0,0,1-1.17,1.8,8,8,0,0,1-1.54,1.37,7.08,7.08,0,0,1-1.8.86,6.09,6.09,0,0,1-1.94.29h-.37l-.35,0-.34-.05-.33-.08A4.62,4.62,0,0,1,88.65,38a4,4,0,0,1-1.15-1.48,4.4,4.4,0,0,1-.39-1.9,5.57,5.57,0,0,1,.49-2.14l.57-1.28.59-1.28.61-1.29c.2-.43.41-.87.61-1.31l-7.69-1.8-7.52-1.75L67.41,22l-7.24-1.69c-.19.4-.39.8-.58,1.19L59,22.68l-.56,1.16L57.89,25a7.52,7.52,0,0,1-1.36,1.91,7.24,7.24,0,0,1-1.78,1.37,6.39,6.39,0,0,1-2,.7,5.28,5.28,0,0,1-2.06-.06,3.89,3.89,0,0,1-1.58-.81,3.47,3.47,0,0,1-.94-1.38,4.32,4.32,0,0,1-.24-1.78,5.86,5.86,0,0,1,.54-2c.18-.4.36-.8.56-1.19s.39-.8.59-1.19.4-.8.61-1.2.4-.81.61-1.22l-.1,0-.1,0-.1,0-.1,0a9.56,9.56,0,0,0-1.05-.17,7.62,7.62,0,0,0-1.07,0,7.93,7.93,0,0,0-1.07.11,10.76,10.76,0,0,0-1.1.23,15.07,15.07,0,0,0-2.76,1A13.17,13.17,0,0,0,41,20.65a12.77,12.77,0,0,0-2.06,2,14.73,14.73,0,0,0-1.67,2.48c-.44.8-.86,1.61-1.28,2.43S35.1,29.17,34.69,30l-1.25,2.5L32.17,35"/><path class="cls-1" d="M171,63c-.3,1.25-.53,2.52-.9,3.75a18,18,0,0,1-4.59,7.6q-34.71,34.73-69.46,69.42a6.45,6.45,0,0,1-2.41,1.48c-9.94,3.36-19.91,6.65-29.86,10A4.48,4.48,0,0,1,58,149.39c3.34-9.95,6.63-19.92,10-29.87A6.6,6.6,0,0,1,69.53,117Q104,82.48,138.56,48a18.93,18.93,0,0,1,11.14-5.63,2.59,2.59,0,0,0,.51-.18h4a3.35,3.35,0,0,0,.61.2,18.81,18.81,0,0,1,15.71,14.28c.19.78.34,1.57.51,2.36Zm-33.31-1.42L78.88,120.42l13.91,13.93,58.83-58.87Zm20.46,7.57c3.24-2.87,4.74-6.34,3.64-10.6a9.41,9.41,0,0,0-7.44-7.23c-4.19-.94-7.58.58-10.29,3.74ZM74.13,128.94l-5.06,15.19,15.19-5.07Z"/><path class="cls-1" d="M220,111.54a30.76,30.76,0,0,1-15.88-4.18A31.31,31.31,0,0,1,192.79,96a30.66,30.66,0,0,1-4.19-15.87,30,30,0,0,1,4.19-15.75A31.59,31.59,0,0,1,204.1,53.23,30.77,30.77,0,0,1,220,49a31.37,31.37,0,0,1,16,4.13,31,31,0,0,1,11.31,11.19,30.44,30.44,0,0,1,4.19,15.81A30.75,30.75,0,0,1,247.29,96,31.39,31.39,0,0,1,236,107.36,31,31,0,0,1,220,111.54Zm0-13.25A17.59,17.59,0,0,0,229,96a16,16,0,0,0,6.12-6.44,19.66,19.66,0,0,0,2.19-9.37,18.56,18.56,0,0,0-2.25-9.25A16.78,16.78,0,0,0,229,64.61a18.5,18.5,0,0,0-17.94,0,16.17,16.17,0,0,0-6.13,6.31,19,19,0,0,0-2.18,9.25,19.66,19.66,0,0,0,2.18,9.37A16,16,0,0,0,211,96,17.31,17.31,0,0,0,220,98.29Z"/><path class="cls-1" d="M259.72,110.29v-60h13.75v60Zm13.75-33.37-4.75-2.38q0-11.37,5.07-18.43T289.1,49a19.66,19.66,0,0,1,8.12,1.63A19.44,19.44,0,0,1,304,55.92l-9,9.25a9.43,9.43,0,0,0-3.62-2.5,14.39,14.39,0,0,0-14.13,2.87Q273.47,69.17,273.47,76.92Z"/><path class="cls-1" d="M330.1,109a27.14,27.14,0,0,1-14.44-3.93,27.87,27.87,0,0,1-10.13-10.82,32.06,32.06,0,0,1-3.68-15.37,31.36,31.36,0,0,1,3.68-15.25A28.14,28.14,0,0,1,315.66,53,27.15,27.15,0,0,1,330.1,49a26.09,26.09,0,0,1,12.5,2.88A21.07,21.07,0,0,1,351,59.86a22.71,22.71,0,0,1,3,11.81V86.42a22.48,22.48,0,0,1-3.06,11.75,21.39,21.39,0,0,1-8.44,8A25.79,25.79,0,0,1,330.1,109Zm.62,27.5a37.86,37.86,0,0,1-16.62-3.43,29.31,29.31,0,0,1-11.5-9.69l9-9a24.08,24.08,0,0,0,8.25,6.75A25.2,25.2,0,0,0,331,123.42q8.13,0,12.88-4.19t4.75-11.44V93L351,79.79,348.6,66.42V50.29h13.75v57.5a28.06,28.06,0,0,1-4,15.07,27.48,27.48,0,0,1-11.13,10.06A35.87,35.87,0,0,1,330.72,136.54ZM332.85,96a17.42,17.42,0,0,0,8.75-2.12A14.83,14.83,0,0,0,347.41,88,18.56,18.56,0,0,0,349.47,79a18.54,18.54,0,0,0-2.06-8.93,14.83,14.83,0,0,0-5.81-5.94A17.42,17.42,0,0,0,332.85,62,17.8,17.8,0,0,0,324,64.17a15.06,15.06,0,0,0-5.93,5.94,19.68,19.68,0,0,0,0,17.81,15,15,0,0,0,5.93,6A17.79,17.79,0,0,0,332.85,96Z"/><path class="cls-1" d="M399.6,111.54a27,27,0,0,1-14.69-4.12,29.53,29.53,0,0,1-10.38-11.19,32.77,32.77,0,0,1-3.81-15.81,33,33,0,0,1,3.81-15.94,30,30,0,0,1,10.38-11.25A26.73,26.73,0,0,1,399.6,49,24.73,24.73,0,0,1,411.78,52,22.38,22.38,0,0,1,420.22,60a22,22,0,0,1,3.13,11.63V88.92a22.12,22.12,0,0,1-3.07,11.62,21.81,21.81,0,0,1-8.43,8.07A25.24,25.24,0,0,1,399.6,111.54Zm2.25-13a15.89,15.89,0,0,0,12.31-5.12q4.68-5.13,4.69-13.13a20.43,20.43,0,0,0-2.13-9.5,15.78,15.78,0,0,0-5.94-6.43A16.9,16.9,0,0,0,401.85,62,16.7,16.7,0,0,0,393,64.36a16.26,16.26,0,0,0-6,6.43,21.79,21.79,0,0,0,0,19,16.29,16.29,0,0,0,6,6.44A16.7,16.7,0,0,0,401.85,98.54ZM418,110.29V94.17l2.38-14.63L418,65V50.29h13.75v60Z"/><path class="cls-1" d="M443.85,110.29v-60H457.6v60Zm41.12,0V75.67a13.52,13.52,0,0,0-3.81-9.88,13.18,13.18,0,0,0-9.81-3.87,14.3,14.3,0,0,0-7.13,1.75,12.46,12.46,0,0,0-4.87,4.87,14.32,14.32,0,0,0-1.75,7.13l-5.38-3a24.37,24.37,0,0,1,3-12.19,22,22,0,0,1,8.31-8.37A23.48,23.48,0,0,1,475.47,49a21.43,21.43,0,0,1,12,3.44,24.73,24.73,0,0,1,8.25,8.88,23.08,23.08,0,0,1,3,11.31v37.62Z"/><path class="cls-1" d="M516.59,39.29a7.78,7.78,0,0,1-5.81-2.37A8.09,8.09,0,0,1,508.47,31a8.09,8.09,0,0,1,2.31-5.87,8.37,8.37,0,0,1,11.69,0A8.2,8.2,0,0,1,524.72,31a8.21,8.21,0,0,1-2.25,5.88A7.74,7.74,0,0,1,516.59,39.29Zm-6.87,71v-60h13.75v60Z"/><path class="cls-1" d="M531.22,102.79l33.5-45h16.12l-33.5,45Zm0,7.5v-7.5l12.5-5h36.37v12.5Zm2.25-47.5V50.29h47.37v7.5l-12.5,5Z"/><path class="cls-1" d="M615.84,111.54a32.27,32.27,0,0,1-16.18-4.06,30.18,30.18,0,0,1-11.38-11.19,31,31,0,0,1-4.19-16,31,31,0,0,1,4.13-15.93A30.7,30.7,0,0,1,615.09,49a28.22,28.22,0,0,1,14.82,3.88A27.57,27.57,0,0,1,640,63.54a31.55,31.55,0,0,1,3.69,15.38,24.64,24.64,0,0,1-.19,3.06c-.12,1-.31,2.19-.56,3.44H593.72V74.17h42.12l-5.12,4.5a23,23,0,0,0-2.13-9.25,13.4,13.4,0,0,0-5.31-5.75,16.55,16.55,0,0,0-8.44-2,17.83,17.83,0,0,0-9.12,2.25,15.28,15.28,0,0,0-6,6.31,20.62,20.62,0,0,0-2.13,9.69,20.77,20.77,0,0,0,2.25,9.87,15.85,15.85,0,0,0,6.38,6.57,19.1,19.1,0,0,0,9.5,2.31A22.09,22.09,0,0,0,624.28,97,17.76,17.76,0,0,0,631,92.29l8.75,8.88a28,28,0,0,1-10.63,7.75A33.83,33.83,0,0,1,615.84,111.54Z"/></svg>